# Blender 5.0.1
# www.blender.org
mtllib mySkydome.mtl
o 球
v 0.000000 1000.000000 0.000000
v 0.000000 831.469604 -555.570251
v 0.000000 555.570251 -831.469604
v 0.000000 195.090317 -980.785278
v 0.000000 0.000000 -1000.000000
v 0.000000 -195.090317 -980.785278
v 0.000000 -555.570251 -831.469604
v 0.000000 -1000.000000 0.000000
v 38.060234 980.785278 -191.341721
v 74.657845 923.879517 -375.330292
v 108.386383 831.469604 -544.895142
v 137.949692 707.106750 -693.519897
v 162.211670 555.570251 -815.493103
v 180.239944 382.683441 -906.127380
v 191.341721 195.090317 -961.939697
v 195.090317 0.000000 -980.785278
v 191.341721 -195.090317 -961.939697
v 180.239944 -382.683441 -906.127380
v 162.211670 -555.570251 -815.493103
v 137.949692 -707.106750 -693.519897
v 108.386383 -831.469604 -544.895142
v 74.657845 -923.879517 -375.330292
v 38.060234 -980.785278 -191.341721
v 74.657829 980.785278 -180.239944
v 146.446609 923.879517 -353.553406
v 212.607529 831.469604 -513.279907
v 270.598053 707.106750 -653.281433
v 318.189636 555.570251 -768.177612
v 353.553345 382.683441 -853.553345
v 375.330261 195.090317 -906.127380
v 382.683441 0.000000 -923.879456
v 375.330261 -195.090317 -906.127380
v 353.553345 -382.683441 -853.553345
v 318.189636 -555.570251 -768.177612
v 270.598053 -707.106750 -653.281433
v 212.607529 -831.469604 -513.279907
v 146.446609 -923.879517 -353.553406
v 74.657829 -980.785278 -180.239944
v 108.386368 980.785278 -162.211655
v 212.607529 923.879517 -318.189636
v 308.658264 831.469604 -461.939697
v 392.847473 707.106750 -587.937744
v 461.939697 555.570251 -691.341553
v 513.279907 382.683441 -768.177673
v 544.895142 195.090317 -815.493103
v 555.570251 0.000000 -831.469482
v 544.895142 -195.090317 -815.493103
v 513.279907 -382.683441 -768.177673
v 461.939697 -555.570251 -691.341553
v 392.847473 -707.106750 -587.937744
v 308.658264 -831.469604 -461.939697
v 212.607529 -923.879517 -318.189636
v 108.386368 -980.785278 -162.211655
v 137.949677 980.785278 -137.949661
v 270.598053 923.879517 -270.598022
v 392.847443 831.469604 -392.847382
v 500.000000 707.106750 -500.000000
v 587.937683 555.570251 -587.937683
v 653.281372 382.683441 -653.281433
v 693.519897 195.090317 -693.519836
v 707.106750 0.000000 -707.106567
v 693.519897 -195.090317 -693.519836
v 653.281372 -382.683441 -653.281433
v 587.937683 -555.570251 -587.937683
v 500.000000 -707.106750 -500.000000
v 392.847443 -831.469604 -392.847382
v 270.598053 -923.879517 -270.598022
v 137.949677 -980.785278 -137.949661
v 162.211655 980.785278 -108.386353
v 318.189636 923.879517 -212.607498
v 461.939728 831.469604 -308.658203
v 587.937744 707.106750 -392.847473
v 691.341614 555.570251 -461.939636
v 768.177612 382.683441 -513.279968
v 815.493103 195.090317 -544.895020
v 831.469543 0.000000 -555.570007
v 815.493103 -195.090317 -544.895020
v 768.177612 -382.683441 -513.279968
v 691.341614 -555.570251 -461.939636
v 587.937744 -707.106750 -392.847473
v 461.939728 -831.469604 -308.658203
v 318.189636 -923.879517 -212.607498
v 162.211655 -980.785278 -108.386353
v 180.239914 980.785278 -74.657814
v 353.553345 923.879517 -146.446579
v 513.279907 831.469604 -212.607452
v 653.281433 707.106750 -270.598053
v 768.177612 555.570251 -318.189514
v 853.553284 382.683441 -353.553406
v 906.127319 195.090317 -375.330139
v 923.879395 0.000000 -382.683228
v 906.127319 -195.090317 -375.330139
v 853.553284 -382.683441 -353.553406
v 768.177612 -555.570251 -318.189514
v 653.281433 -707.106750 -270.598053
v 513.279907 -831.469604 -212.607452
v 353.553345 -923.879517 -146.446579
v 180.239914 -980.785278 -74.657814
v 191.341675 980.785278 -38.060215
v 375.330231 923.879517 -74.657814
v 544.895081 831.469604 -108.386314
v 693.519897 707.106750 -137.949707
v 815.492981 555.570251 -162.211563
v 906.127319 382.683441 -180.239990
v 961.939636 195.090317 -191.341614
v 980.785095 0.000000 -195.090134
v 961.939636 -195.090317 -191.341614
v 906.127319 -382.683441 -180.239990
v 815.492981 -555.570251 -162.211563
v 693.519897 -707.106750 -137.949707
v 544.895081 -831.469604 -108.386314
v 375.330231 -923.879517 -74.657814
v 191.341675 -980.785278 -38.060215
v 195.090271 980.785278 0.000011
v 382.683411 923.879517 0.000022
v 555.570129 831.469604 0.000052
v 707.106689 707.106750 -0.000015
v 831.469421 555.570251 0.000089
v 923.879456 382.683441 -0.000045
v 980.785156 195.090317 0.000089
v 999.999695 0.000000 0.000164
v 980.785156 -195.090317 0.000089
v 923.879456 -382.683441 -0.000045
v 831.469421 -555.570251 0.000089
v 707.106689 -707.106750 -0.000015
v 555.570129 -831.469604 0.000052
v 382.683411 -923.879517 0.000022
v 195.090271 -980.785278 0.000011
v 191.341660 980.785278 38.060234
v 375.330231 923.879517 74.657852
v 544.895020 831.469604 108.386406
v 693.519836 707.106750 137.949661
v 815.492920 555.570251 162.211731
v 906.127319 382.683441 180.239899
v 961.939575 195.090317 191.341766
v 980.784912 0.000000 195.090424
v 961.939575 -195.090317 191.341766
v 906.127319 -382.683441 180.239899
v 815.492920 -555.570251 162.211731
v 693.519836 -707.106750 137.949661
v 544.895020 -831.469604 108.386406
v 375.330231 -923.879517 74.657852
v 191.341660 -980.785278 38.060234
v 180.239883 980.785278 74.657822
v 353.553345 923.879517 146.446609
v 513.279785 831.469604 212.607529
v 653.281372 707.106750 270.597992
v 768.177490 555.570251 318.189636
v 853.553284 382.683441 353.553284
v 906.127197 195.090317 375.330292
v 923.879089 0.000000 382.683441
v 906.127197 -195.090317 375.330292
v 853.553284 -382.683441 353.553284
v 768.177490 -555.570251 318.189636
v 653.281372 -707.106750 270.597992
v 513.279785 -831.469604 212.607529
v 353.553345 -923.879517 146.446609
v 180.239883 -980.785278 74.657822
v 162.211594 980.785278 108.386337
v 318.189606 923.879517 212.607513
v 461.939575 831.469604 308.658234
v 587.937683 707.106750 392.847412
v 691.341431 555.570251 461.939697
v 768.177612 382.683441 513.279846
v 815.492920 195.090317 544.895081
v 831.469116 0.000000 555.570190
v 815.492920 -195.090317 544.895081
v 768.177612 -382.683441 513.279846
v 691.341431 -555.570251 461.939697
v 587.937683 -707.106750 392.847412
v 461.939575 -831.469604 308.658234
v 318.189606 -923.879517 212.607513
v 162.211594 -980.785278 108.386337
v 137.949615 980.785278 137.949631
v 270.597961 923.879517 270.598022
v 392.847260 831.469604 392.847412
v 499.999939 707.106750 499.999939
v 587.937561 555.570251 587.937683
v 653.281372 382.683441 653.281311
v 693.519714 195.090317 693.519836
v 707.106262 0.000000 707.106628
v 693.519714 -195.090317 693.519836
v 653.281372 -382.683441 653.281311
v 587.937561 -555.570251 587.937683
v 499.999939 -707.106750 499.999939
v 392.847260 -831.469604 392.847412
v 270.597961 -923.879517 270.598022
v 137.949615 -980.785278 137.949631
v 108.386314 980.785278 162.211594
v 212.607437 923.879517 318.189636
v 308.658081 831.469604 461.939667
v 392.847412 707.106750 587.937683
v 461.939545 555.570251 691.341492
v 513.279907 382.683441 768.177551
v 544.894897 195.090317 815.492981
v 555.569702 0.000000 831.469360
v 544.894897 -195.090317 815.492981
v 513.279907 -382.683441 768.177551
v 461.939545 -555.570251 691.341492
v 392.847412 -707.106750 587.937683
v 308.658081 -831.469604 461.939667
v 212.607437 -923.879517 318.189636
v 108.386314 -980.785278 162.211594
v 74.657784 980.785278 180.239853
v 146.446533 923.879517 353.553314
v 212.607361 831.469604 513.279785
v 270.597992 707.106750 653.281372
v 318.189453 555.570251 768.177490
v 353.553345 382.683441 853.553162
v 375.330017 195.090317 906.127197
v 382.682953 0.000000 923.879150
v 375.330017 -195.090317 906.127197
v 353.553345 -382.683441 853.553162
v 318.189453 -555.570251 768.177490
v 270.597992 -707.106750 653.281372
v 212.607361 -831.469604 513.279785
v 146.446533 -923.879517 353.553314
v 74.657784 -980.785278 180.239853
v 38.060204 980.785278 191.341599
v 74.657761 923.879517 375.330170
v 108.386230 831.469604 544.894897
v 137.949661 707.106750 693.519836
v 162.211517 555.570251 815.492859
v 180.239944 382.683441 906.127197
v 191.341522 195.090317 961.939453
v 195.089905 0.000000 980.784790
v 191.341522 -195.090317 961.939453
v 180.239944 -382.683441 906.127197
v 162.211517 -555.570251 815.492859
v 137.949661 -707.106750 693.519836
v 108.386230 -831.469604 544.894897
v 74.657761 -923.879517 375.330170
v 38.060204 -980.785278 191.341599
v -0.000007 980.785278 195.090195
v -0.000052 923.879517 382.683350
v -0.000097 831.469604 555.569946
v -0.000015 707.106750 707.106628
v -0.000104 555.570251 831.469299
v 0.000030 382.683441 923.879272
v -0.000134 195.090317 980.784973
v -0.000328 0.000000 999.999329
v -0.000134 -195.090317 980.784973
v 0.000030 -382.683441 923.879272
v -0.000104 -555.570251 831.469299
v -0.000015 -707.106750 707.106628
v -0.000097 -831.469604 555.569946
v -0.000052 -923.879517 382.683350
v -0.000007 -980.785278 195.090195
v -38.060215 980.785278 191.341583
v -74.657867 923.879517 375.330170
v -108.386421 831.469604 544.894836
v -137.949677 707.106750 693.519775
v -162.211716 555.570251 815.492798
v -180.239868 382.683441 906.127136
v -191.341782 195.090317 961.939392
v -195.090515 0.000000 980.784546
v -191.341782 -195.090317 961.939392
v -180.239868 -382.683441 906.127136
v -162.211716 -555.570251 815.492798
v -137.949677 -707.106750 693.519775
v -108.386421 -831.469604 544.894836
v -74.657867 -923.879517 375.330170
v -38.060215 -980.785278 191.341583
v -74.657784 980.785278 180.239822
v -146.446609 923.879517 353.553284
v -212.607498 831.469604 513.279602
v -270.597992 707.106750 653.281311
v -318.189636 555.570251 768.177368
v -353.553223 382.683441 853.553101
v -375.330261 195.090317 906.127014
v -382.683472 0.000000 923.878723
v -375.330261 -195.090317 906.127014
v -353.553223 -382.683441 853.553101
v -318.189636 -555.570251 768.177368
v -270.597992 -707.106750 653.281311
v -212.607498 -831.469604 513.279602
v -146.446609 -923.879517 353.553284
v -74.657784 -980.785278 180.239822
v -108.386299 980.785278 162.211548
v -212.607498 923.879517 318.189545
v -308.658173 831.469604 461.939392
v -392.847412 707.106750 587.937683
v -461.939636 555.570251 691.341370
v -513.279724 382.683441 768.177490
v -544.895081 195.090317 815.492737
v -555.570129 0.000000 831.468750
v -544.895081 -195.090317 815.492737
v -513.279724 -382.683441 768.177490
v -461.939636 -555.570251 691.341370
v -392.847412 -707.106750 587.937683
v -308.658173 -831.469604 461.939392
v -212.607498 -923.879517 318.189545
v -108.386299 -980.785278 162.211548
v -137.949585 980.785278 137.949570
v -270.597992 923.879517 270.597931
v -392.847290 831.469604 392.847107
v -499.999908 707.106750 499.999878
v -587.937622 555.570251 587.937439
v -653.281189 382.683441 653.281250
v -693.519775 195.090317 693.519531
v -707.106445 0.000000 707.105957
v -693.519775 -195.090317 693.519531
v -653.281189 -382.683441 653.281250
v -587.937622 -555.570251 587.937439
v -499.999908 -707.106750 499.999878
v -392.847290 -831.469604 392.847107
v -270.597992 -923.879517 270.597931
v -137.949585 -980.785278 137.949570
v -162.211548 980.785278 108.386276
v -318.189575 923.879517 212.607407
v -461.939514 831.469604 308.657959
v -587.937683 707.106750 392.847351
v -691.341431 555.570251 461.939423
v -768.177429 382.683441 513.279785
v -815.492920 195.090317 544.894714
v -831.469116 0.000000 555.569397
v -815.492920 -195.090317 544.894714
v -768.177429 -382.683441 513.279785
v -691.341431 -555.570251 461.939423
v -587.937683 -707.106750 392.847351
v -461.939514 -831.469604 308.657959
v -318.189575 -923.879517 212.607407
v -162.211548 -980.785278 108.386276
v -180.239807 980.785278 74.657753
v -353.553253 923.879517 146.446518
v -513.279602 831.469604 212.607239
v -653.281311 707.106750 270.597961
v -768.177368 555.570251 318.189331
v -853.553040 382.683441 353.553253
v -906.127136 195.090317 375.329895
v -923.878845 0.000000 382.682678
v -906.127136 -195.090317 375.329895
v -853.553040 -382.683441 353.553253
v -768.177368 -555.570251 318.189331
v -653.281311 -707.106750 270.597961
v -513.279602 -831.469604 212.607239
v -353.553253 -923.879517 146.446518
v -180.239807 -980.785278 74.657753
v -191.341553 980.785278 38.060181
v -375.330109 923.879517 74.657753
v -544.894714 831.469604 108.386154
v -693.519775 707.106750 137.949631
v -815.492737 555.570251 162.211426
v -906.127075 382.683441 180.239883
v -961.939392 195.090317 191.341385
v -980.784424 0.000000 195.089691
v -961.939392 -195.090317 191.341385
v -906.127075 -382.683441 180.239883
v -815.492737 -555.570251 162.211426
v -693.519775 -707.106750 137.949631
v -544.894714 -831.469604 108.386154
v -375.330109 -923.879517 74.657753
v -191.341553 -980.785278 38.060181
v -195.090149 980.785278 -0.000019
v -382.683258 923.879517 -0.000052
v -555.569763 831.469604 -0.000149
v -707.106567 707.106750 -0.000030
v -831.469177 555.570251 -0.000164
v -923.879150 382.683441 -0.000015
v -980.784851 195.090317 -0.000268
v -999.999023 0.000000 -0.000447
v -980.784851 -195.090317 -0.000268
v -923.879150 -382.683441 -0.000015
v -831.469177 -555.570251 -0.000164
v -707.106567 -707.106750 -0.000030
v -555.569763 -831.469604 -0.000149
v -382.683258 -923.879517 -0.000052
v -195.090149 -980.785278 -0.000019
v -191.341537 980.785278 -38.060219
v -375.330078 923.879517 -74.657852
v -544.894653 831.469604 -108.386436
v -693.519714 707.106750 -137.949692
v -815.492615 555.570251 -162.211761
v -906.127014 382.683441 -180.239899
v -961.939209 195.090317 -191.341888
v -980.784241 0.000000 -195.090576
v -961.939209 -195.090317 -191.341888
v -906.127014 -382.683441 -180.239899
v -815.492615 -555.570251 -162.211761
v -693.519714 -707.106750 -137.949692
v -544.894653 -831.469604 -108.386436
v -375.330078 -923.879517 -74.657852
v -191.341537 -980.785278 -38.060219
v -180.239777 980.785278 -74.657784
v -353.553192 923.879517 -146.446579
v -513.279419 831.469604 -212.607483
v -653.281250 707.106750 -270.597992
v -768.177185 555.570251 -318.189636
v -853.552979 382.683441 -353.553223
v -906.126831 195.090317 -375.330322
v -923.878418 0.000000 -382.683472
v -906.126831 -195.090317 -375.330322
v -853.552979 -382.683441 -353.553223
v -768.177185 -555.570251 -318.189636
v -653.281250 -707.106750 -270.597992
v -513.279419 -831.469604 -212.607483
v -353.553192 -923.879517 -146.446579
v -180.239777 -980.785278 -74.657784
v -162.211502 980.785278 -108.386292
v -318.189453 923.879517 -212.607452
v -461.939209 831.469604 -308.658142
v -587.937622 707.106750 -392.847382
v -691.341187 555.570251 -461.939636
v -768.177368 382.683441 -513.279724
v -815.492554 195.090317 -544.895081
v -831.468445 0.000000 -555.570068
v -815.492554 -195.090317 -544.895081
v -768.177368 -382.683441 -513.279724
v -691.341187 -555.570251 -461.939636
v -587.937622 -707.106750 -392.847382
v -461.939209 -831.469604 -308.658142
v -318.189453 -923.879517 -212.607452
v -162.211502 -980.785278 -108.386292
v -137.949539 980.785278 -137.949570
v -270.597870 923.879517 -270.597931
v -392.846954 831.469604 -392.847229
v -499.999817 707.106750 -499.999878
v -587.937256 555.570251 -587.937561
v -653.281128 382.683441 -653.281128
v -693.519348 195.090317 -693.519714
v -707.105713 0.000000 -707.106323
v -693.519348 -195.090317 -693.519714
v -653.281128 -382.683441 -653.281128
v -587.937256 -555.570251 -587.937561
v -499.999817 -707.106750 -499.999878
v -392.846954 -831.469604 -392.847229
v -270.597870 -923.879517 -270.597931
v -137.949539 -980.785278 -137.949570
v -108.386246 980.785278 -162.211517
v -212.607376 923.879517 -318.189514
v -308.657806 831.469604 -461.939423
v -392.847290 707.106750 -587.937683
v -461.939270 555.570251 -691.341370
v -513.279663 382.683441 -768.177368
v -544.894592 195.090317 -815.492798
v -555.569214 0.000000 -831.468933
v -544.894592 -195.090317 -815.492798
v -513.279663 -382.683441 -768.177368
v -461.939270 -555.570251 -691.341370
v -392.847290 -707.106750 -587.937683
v -308.657806 -831.469604 -461.939423
v -212.607376 -923.879517 -318.189514
v -108.386246 -980.785278 -162.211517
v -74.657738 980.785278 -180.239761
v -146.446487 923.879517 -353.553223
v -212.607101 831.469604 -513.279480
v -270.597900 707.106750 -653.281311
v -318.189209 555.570251 -768.177246
v -353.553162 382.683441 -853.552979
v -375.329803 195.090317 -906.126953
v -382.682556 0.000000 -923.878601
v -375.329803 -195.090317 -906.126953
v -353.553162 -382.683441 -853.552979
v -318.189209 -555.570251 -768.177246
v -270.597900 -707.106750 -653.281311
v -212.607101 -831.469604 -513.279480
v -146.446487 -923.879517 -353.553223
v -74.657738 -980.785278 -180.239761
v -38.060177 980.785278 -191.341507
v -74.657730 923.879517 -375.330078
v -108.386040 831.469604 -544.894531
v -137.949570 707.106750 -693.519775
v -162.211334 555.570251 -815.492554
v -180.239807 382.683441 -906.126953
v -191.341324 195.090317 -961.939209
v -195.089630 0.000000 -980.784180
v -191.341324 -195.090317 -961.939209
v -180.239807 -382.683441 -906.126953
v -162.211334 -555.570251 -815.492554
v -137.949570 -707.106750 -693.519775
v -108.386040 -831.469604 -544.894531
v -74.657730 -923.879517 -375.330078
v -38.060177 -980.785278 -191.341507
v 0.000015 980.785278 -195.090103
v 0.000067 923.879517 -382.683228
v 0.000089 707.106750 -707.106567
v 0.000060 382.683441 -923.879028
v 0.000060 -382.683441 -923.879028
v 0.000089 -707.106750 -707.106567
v 0.000216 -831.469604 -555.569519
v 0.000067 -923.879517 -382.683228
v 0.000015 -980.785278 -195.090103
vn -0.0000 -1.0000 -0.0000
vn -0.0000 -0.8286 0.5598
vn -0.0000 -0.5528 0.8333
vn -0.0000 -0.1939 0.9810
vn -0.0000 -0.0000 1.0000
vn -0.0000 0.1939 0.9810
vn -0.0000 0.5528 0.8333
vn -0.0000 1.0000 -0.0000
vn -0.0392 -0.9796 0.1971
vn -0.0757 -0.9217 0.3804
vn -0.1092 -0.8286 0.5490
vn -0.1385 -0.7041 0.6965
vn -0.1626 -0.5528 0.8173
vn -0.1804 -0.3805 0.9070
vn -0.1914 -0.1939 0.9622
vn -0.1951 -0.0000 0.9808
vn -0.1914 0.1939 0.9622
vn -0.1804 0.3805 0.9070
vn -0.1626 0.5528 0.8173
vn -0.1385 0.7041 0.6965
vn -0.1092 0.8286 0.5490
vn -0.0757 0.9217 0.3804
vn -0.0392 0.9796 0.1971
vn -0.0769 -0.9796 0.1857
vn -0.1484 -0.9217 0.3584
vn -0.2142 -0.8286 0.5172
vn -0.2718 -0.7041 0.6561
vn -0.3189 -0.5528 0.7699
vn -0.3539 -0.3805 0.8544
vn -0.3754 -0.1939 0.9063
vn -0.3827 -0.0000 0.9239
vn -0.3754 0.1939 0.9063
vn -0.3539 0.3805 0.8544
vn -0.3189 0.5528 0.7699
vn -0.2718 0.7041 0.6561
vn -0.2142 0.8286 0.5172
vn -0.1484 0.9217 0.3584
vn -0.0769 0.9796 0.1857
vn -0.1117 -0.9796 0.1671
vn -0.2155 -0.9217 0.3225
vn -0.3110 -0.8286 0.4654
vn -0.3945 -0.7041 0.5905
vn -0.4630 -0.5528 0.6929
vn -0.5138 -0.3805 0.7689
vn -0.5450 -0.1939 0.8157
vn -0.5556 -0.0000 0.8315
vn -0.5450 0.1939 0.8157
vn -0.5138 0.3805 0.7689
vn -0.4630 0.5528 0.6929
vn -0.3945 0.7041 0.5905
vn -0.3110 0.8286 0.4654
vn -0.2155 0.9217 0.3225
vn -0.1117 0.9796 0.1671
vn -0.1421 -0.9796 0.1421
vn -0.2743 -0.9217 0.2743
vn -0.3958 -0.8286 0.3958
vn -0.5021 -0.7041 0.5021
vn -0.5893 -0.5528 0.5893
vn -0.6539 -0.3805 0.6539
vn -0.6937 -0.1939 0.6937
vn -0.7071 -0.0000 0.7071
vn -0.6937 0.1939 0.6937
vn -0.6539 0.3805 0.6539
vn -0.5893 0.5528 0.5893
vn -0.5021 0.7041 0.5021
vn -0.3958 0.8286 0.3958
vn -0.2743 0.9217 0.2743
vn -0.1421 0.9796 0.1421
vn -0.1671 -0.9796 0.1117
vn -0.3225 -0.9217 0.2155
vn -0.4654 -0.8286 0.3110
vn -0.5905 -0.7041 0.3945
vn -0.6929 -0.5528 0.4630
vn -0.7689 -0.3805 0.5138
vn -0.8157 -0.1939 0.5450
vn -0.8315 -0.0000 0.5556
vn -0.8157 0.1939 0.5450
vn -0.7689 0.3805 0.5138
vn -0.6929 0.5528 0.4630
vn -0.5905 0.7041 0.3945
vn -0.4654 0.8286 0.3110
vn -0.3225 0.9217 0.2155
vn -0.1671 0.9796 0.1117
vn -0.1857 -0.9796 0.0769
vn -0.3584 -0.9217 0.1484
vn -0.5172 -0.8286 0.2142
vn -0.6561 -0.7041 0.2718
vn -0.7699 -0.5528 0.3189
vn -0.8544 -0.3805 0.3539
vn -0.9063 -0.1939 0.3754
vn -0.9239 -0.0000 0.3827
vn -0.9063 0.1939 0.3754
vn -0.8544 0.3805 0.3539
vn -0.7699 0.5528 0.3189
vn -0.6561 0.7041 0.2718
vn -0.5172 0.8286 0.2142
vn -0.3584 0.9217 0.1484
vn -0.1857 0.9796 0.0769
vn -0.1971 -0.9796 0.0392
vn -0.3804 -0.9217 0.0757
vn -0.5490 -0.8286 0.1092
vn -0.6965 -0.7041 0.1385
vn -0.8173 -0.5528 0.1626
vn -0.9070 -0.3805 0.1804
vn -0.9622 -0.1939 0.1914
vn -0.9808 -0.0000 0.1951
vn -0.9622 0.1939 0.1914
vn -0.9070 0.3805 0.1804
vn -0.8173 0.5528 0.1626
vn -0.6965 0.7041 0.1385
vn -0.5490 0.8286 0.1092
vn -0.3804 0.9217 0.0757
vn -0.1971 0.9796 0.0392
vn -0.2010 -0.9796 -0.0000
vn -0.3879 -0.9217 -0.0000
vn -0.5598 -0.8286 -0.0000
vn -0.7101 -0.7041 -0.0000
vn -0.8333 -0.5528 -0.0000
vn -0.9248 -0.3805 -0.0000
vn -0.9810 -0.1939 -0.0000
vn -1.0000 -0.0000 -0.0000
vn -0.9810 0.1939 -0.0000
vn -0.9248 0.3805 -0.0000
vn -0.8333 0.5528 -0.0000
vn -0.7101 0.7041 -0.0000
vn -0.5598 0.8286 -0.0000
vn -0.3879 0.9217 -0.0000
vn -0.2010 0.9796 -0.0000
vn -0.1971 -0.9796 -0.0392
vn -0.3804 -0.9217 -0.0757
vn -0.5490 -0.8286 -0.1092
vn -0.6965 -0.7041 -0.1385
vn -0.8173 -0.5528 -0.1626
vn -0.9070 -0.3805 -0.1804
vn -0.9622 -0.1939 -0.1914
vn -0.9808 -0.0000 -0.1951
vn -0.9622 0.1939 -0.1914
vn -0.9070 0.3805 -0.1804
vn -0.8173 0.5528 -0.1626
vn -0.6965 0.7041 -0.1385
vn -0.5490 0.8286 -0.1092
vn -0.3804 0.9217 -0.0757
vn -0.1971 0.9796 -0.0392
vn -0.1857 -0.9796 -0.0769
vn -0.3584 -0.9217 -0.1484
vn -0.5172 -0.8286 -0.2142
vn -0.6561 -0.7041 -0.2718
vn -0.7699 -0.5528 -0.3189
vn -0.8544 -0.3805 -0.3539
vn -0.9063 -0.1939 -0.3754
vn -0.9239 -0.0000 -0.3827
vn -0.9063 0.1939 -0.3754
vn -0.8544 0.3805 -0.3539
vn -0.7699 0.5528 -0.3189
vn -0.6561 0.7041 -0.2718
vn -0.5172 0.8286 -0.2142
vn -0.3584 0.9217 -0.1484
vn -0.1857 0.9796 -0.0769
vn -0.1671 -0.9796 -0.1117
vn -0.3225 -0.9217 -0.2155
vn -0.4654 -0.8286 -0.3110
vn -0.5905 -0.7041 -0.3945
vn -0.6929 -0.5528 -0.4630
vn -0.7689 -0.3805 -0.5138
vn -0.8157 -0.1939 -0.5450
vn -0.8315 -0.0000 -0.5556
vn -0.8157 0.1939 -0.5450
vn -0.7689 0.3805 -0.5138
vn -0.6929 0.5528 -0.4630
vn -0.5905 0.7041 -0.3945
vn -0.4654 0.8286 -0.3110
vn -0.3225 0.9217 -0.2155
vn -0.1671 0.9796 -0.1117
vn -0.1421 -0.9796 -0.1421
vn -0.2743 -0.9217 -0.2743
vn -0.3958 -0.8286 -0.3958
vn -0.5021 -0.7041 -0.5021
vn -0.5893 -0.5528 -0.5893
vn -0.6539 -0.3805 -0.6539
vn -0.6937 -0.1939 -0.6937
vn -0.7071 -0.0000 -0.7071
vn -0.6937 0.1939 -0.6937
vn -0.6539 0.3805 -0.6539
vn -0.5893 0.5528 -0.5893
vn -0.5021 0.7041 -0.5021
vn -0.3958 0.8286 -0.3958
vn -0.2743 0.9217 -0.2743
vn -0.1421 0.9796 -0.1421
vn -0.1116 -0.9796 -0.1671
vn -0.2155 -0.9217 -0.3225
vn -0.3110 -0.8286 -0.4654
vn -0.3945 -0.7041 -0.5905
vn -0.4630 -0.5528 -0.6929
vn -0.5138 -0.3805 -0.7689
vn -0.5450 -0.1939 -0.8157
vn -0.5556 -0.0000 -0.8315
vn -0.5450 0.1939 -0.8157
vn -0.5138 0.3805 -0.7689
vn -0.4630 0.5528 -0.6929
vn -0.3945 0.7041 -0.5905
vn -0.3110 0.8286 -0.4654
vn -0.2155 0.9217 -0.3225
vn -0.1117 0.9796 -0.1671
vn -0.0769 -0.9796 -0.1857
vn -0.1484 -0.9217 -0.3584
vn -0.2142 -0.8286 -0.5172
vn -0.2718 -0.7041 -0.6561
vn -0.3189 -0.5528 -0.7699
vn -0.3539 -0.3805 -0.8544
vn -0.3754 -0.1939 -0.9063
vn -0.3827 -0.0000 -0.9239
vn -0.3754 0.1939 -0.9063
vn -0.3539 0.3805 -0.8544
vn -0.3189 0.5528 -0.7699
vn -0.2718 0.7041 -0.6561
vn -0.2142 0.8286 -0.5172
vn -0.1484 0.9217 -0.3584
vn -0.0769 0.9796 -0.1857
vn -0.0392 -0.9796 -0.1971
vn -0.0757 -0.9217 -0.3804
vn -0.1092 -0.8286 -0.5490
vn -0.1385 -0.7041 -0.6965
vn -0.1626 -0.5528 -0.8173
vn -0.1804 -0.3805 -0.9070
vn -0.1914 -0.1939 -0.9622
vn -0.1951 -0.0000 -0.9808
vn -0.1914 0.1939 -0.9622
vn -0.1804 0.3805 -0.9070
vn -0.1626 0.5528 -0.8173
vn -0.1385 0.7041 -0.6965
vn -0.1092 0.8286 -0.5490
vn -0.0757 0.9217 -0.3804
vn -0.0392 0.9796 -0.1971
vn -0.0000 -0.9796 -0.2010
vn -0.0000 -0.9217 -0.3879
vn -0.0000 -0.8286 -0.5598
vn -0.0000 -0.7041 -0.7101
vn -0.0000 -0.5528 -0.8333
vn -0.0000 -0.3805 -0.9248
vn -0.0000 -0.1939 -0.9810
vn -0.0000 -0.0000 -1.0000
vn -0.0000 0.1939 -0.9810
vn -0.0000 0.3805 -0.9248
vn -0.0000 0.5528 -0.8333
vn -0.0000 0.7041 -0.7101
vn -0.0000 0.8286 -0.5598
vn -0.0000 0.9217 -0.3879
vn -0.0000 0.9796 -0.2010
vn 0.0392 -0.9796 -0.1971
vn 0.0757 -0.9217 -0.3804
vn 0.1092 -0.8286 -0.5490
vn 0.1385 -0.7041 -0.6965
vn 0.1626 -0.5528 -0.8173
vn 0.1804 -0.3805 -0.9070
vn 0.1914 -0.1939 -0.9622
vn 0.1951 -0.0000 -0.9808
vn 0.1914 0.1939 -0.9622
vn 0.1804 0.3805 -0.9070
vn 0.1626 0.5528 -0.8173
vn 0.1385 0.7041 -0.6965
vn 0.1092 0.8286 -0.5490
vn 0.0757 0.9217 -0.3804
vn 0.0392 0.9796 -0.1971
vn 0.0769 -0.9796 -0.1857
vn 0.1484 -0.9217 -0.3584
vn 0.2142 -0.8286 -0.5172
vn 0.2718 -0.7041 -0.6561
vn 0.3189 -0.5528 -0.7699
vn 0.3539 -0.3805 -0.8544
vn 0.3754 -0.1939 -0.9063
vn 0.3827 -0.0000 -0.9239
vn 0.3754 0.1939 -0.9063
vn 0.3539 0.3805 -0.8544
vn 0.3189 0.5528 -0.7699
vn 0.2718 0.7041 -0.6561
vn 0.2142 0.8286 -0.5172
vn 0.1484 0.9217 -0.3584
vn 0.0769 0.9796 -0.1857
vn 0.1117 -0.9796 -0.1671
vn 0.2155 -0.9217 -0.3225
vn 0.3110 -0.8286 -0.4654
vn 0.3945 -0.7041 -0.5905
vn 0.4630 -0.5528 -0.6929
vn 0.5138 -0.3805 -0.7689
vn 0.5450 -0.1939 -0.8157
vn 0.5556 -0.0000 -0.8315
vn 0.5450 0.1939 -0.8157
vn 0.5138 0.3805 -0.7689
vn 0.4630 0.5528 -0.6929
vn 0.3945 0.7041 -0.5905
vn 0.3110 0.8286 -0.4654
vn 0.2155 0.9217 -0.3225
vn 0.1117 0.9796 -0.1671
vn 0.1421 -0.9796 -0.1421
vn 0.2743 -0.9217 -0.2743
vn 0.3958 -0.8286 -0.3958
vn 0.5021 -0.7041 -0.5021
vn 0.5893 -0.5528 -0.5893
vn 0.6539 -0.3805 -0.6539
vn 0.6937 -0.1939 -0.6937
vn 0.7071 -0.0000 -0.7071
vn 0.6937 0.1939 -0.6937
vn 0.6539 0.3805 -0.6539
vn 0.5893 0.5528 -0.5893
vn 0.5021 0.7041 -0.5021
vn 0.3958 0.8286 -0.3958
vn 0.2743 0.9217 -0.2743
vn 0.1421 0.9796 -0.1421
vn 0.1671 -0.9796 -0.1117
vn 0.3225 -0.9217 -0.2155
vn 0.4654 -0.8286 -0.3110
vn 0.5905 -0.7041 -0.3945
vn 0.6929 -0.5528 -0.4630
vn 0.7689 -0.3805 -0.5138
vn 0.8157 -0.1939 -0.5450
vn 0.8315 -0.0000 -0.5556
vn 0.8157 0.1939 -0.5450
vn 0.7689 0.3805 -0.5138
vn 0.6929 0.5528 -0.4630
vn 0.5905 0.7041 -0.3945
vn 0.4654 0.8286 -0.3110
vn 0.3225 0.9217 -0.2155
vn 0.1671 0.9796 -0.1117
vn 0.1857 -0.9796 -0.0769
vn 0.3584 -0.9217 -0.1484
vn 0.5172 -0.8286 -0.2142
vn 0.6561 -0.7041 -0.2718
vn 0.7699 -0.5528 -0.3189
vn 0.8544 -0.3805 -0.3539
vn 0.9063 -0.1939 -0.3754
vn 0.9239 -0.0000 -0.3827
vn 0.9063 0.1939 -0.3754
vn 0.8544 0.3805 -0.3539
vn 0.7699 0.5528 -0.3189
vn 0.6561 0.7041 -0.2718
vn 0.5172 0.8286 -0.2142
vn 0.3584 0.9217 -0.1484
vn 0.1857 0.9796 -0.0769
vn 0.1971 -0.9796 -0.0392
vn 0.3804 -0.9217 -0.0757
vn 0.5490 -0.8286 -0.1092
vn 0.6965 -0.7041 -0.1385
vn 0.8173 -0.5528 -0.1626
vn 0.9070 -0.3805 -0.1804
vn 0.9622 -0.1939 -0.1914
vn 0.9808 -0.0000 -0.1951
vn 0.9622 0.1939 -0.1914
vn 0.9070 0.3805 -0.1804
vn 0.8173 0.5528 -0.1626
vn 0.6965 0.7041 -0.1385
vn 0.5490 0.8286 -0.1092
vn 0.3804 0.9217 -0.0757
vn 0.1971 0.9796 -0.0392
vn 0.2010 -0.9796 -0.0000
vn 0.3879 -0.9217 -0.0000
vn 0.5598 -0.8286 -0.0000
vn 0.7101 -0.7041 -0.0000
vn 0.8333 -0.5528 -0.0000
vn 0.9248 -0.3805 -0.0000
vn 0.9810 -0.1939 -0.0000
vn 1.0000 -0.0000 -0.0000
vn 0.9810 0.1939 -0.0000
vn 0.9248 0.3805 -0.0000
vn 0.8333 0.5528 -0.0000
vn 0.7101 0.7041 -0.0000
vn 0.5598 0.8286 -0.0000
vn 0.3879 0.9217 -0.0000
vn 0.2010 0.9796 -0.0000
vn 0.1971 -0.9796 0.0392
vn 0.3804 -0.9217 0.0757
vn 0.5490 -0.8286 0.1092
vn 0.6965 -0.7041 0.1385
vn 0.8173 -0.5528 0.1626
vn 0.9070 -0.3805 0.1804
vn 0.9622 -0.1939 0.1914
vn 0.9808 -0.0000 0.1951
vn 0.9622 0.1939 0.1914
vn 0.9070 0.3805 0.1804
vn 0.8173 0.5528 0.1626
vn 0.6965 0.7041 0.1385
vn 0.5490 0.8286 0.1092
vn 0.3804 0.9217 0.0757
vn 0.1971 0.9796 0.0392
vn 0.1857 -0.9796 0.0769
vn 0.3584 -0.9217 0.1484
vn 0.5172 -0.8286 0.2142
vn 0.6561 -0.7041 0.2718
vn 0.7699 -0.5528 0.3189
vn 0.8544 -0.3805 0.3539
vn 0.9063 -0.1939 0.3754
vn 0.9239 -0.0000 0.3827
vn 0.9063 0.1939 0.3754
vn 0.8544 0.3805 0.3539
vn 0.7699 0.5528 0.3189
vn 0.6561 0.7041 0.2718
vn 0.5172 0.8286 0.2142
vn 0.3584 0.9217 0.1484
vn 0.1857 0.9796 0.0769
vn 0.1671 -0.9796 0.1117
vn 0.3225 -0.9217 0.2155
vn 0.4654 -0.8286 0.3110
vn 0.5905 -0.7041 0.3945
vn 0.6929 -0.5528 0.4630
vn 0.7689 -0.3805 0.5138
vn 0.8157 -0.1939 0.5450
vn 0.8315 -0.0000 0.5556
vn 0.8157 0.1939 0.5450
vn 0.7689 0.3805 0.5138
vn 0.6929 0.5528 0.4630
vn 0.5905 0.7041 0.3945
vn 0.4654 0.8286 0.3110
vn 0.3225 0.9217 0.2155
vn 0.1671 0.9796 0.1117
vn 0.1421 -0.9796 0.1421
vn 0.2743 -0.9217 0.2743
vn 0.3958 -0.8286 0.3958
vn 0.5021 -0.7041 0.5021
vn 0.5893 -0.5528 0.5893
vn 0.6539 -0.3805 0.6539
vn 0.6937 -0.1939 0.6937
vn 0.7071 -0.0000 0.7071
vn 0.6937 0.1939 0.6937
vn 0.6539 0.3805 0.6539
vn 0.5893 0.5528 0.5893
vn 0.5021 0.7041 0.5021
vn 0.3958 0.8286 0.3958
vn 0.2743 0.9217 0.2743
vn 0.1421 0.9796 0.1421
vn 0.1117 -0.9796 0.1671
vn 0.2155 -0.9217 0.3225
vn 0.3110 -0.8286 0.4654
vn 0.3945 -0.7041 0.5905
vn 0.4630 -0.5528 0.6929
vn 0.5138 -0.3805 0.7689
vn 0.5450 -0.1939 0.8157
vn 0.5556 -0.0000 0.8315
vn 0.5450 0.1939 0.8157
vn 0.5138 0.3805 0.7689
vn 0.4630 0.5528 0.6929
vn 0.3945 0.7041 0.5905
vn 0.3110 0.8286 0.4654
vn 0.2155 0.9217 0.3225
vn 0.1117 0.9796 0.1671
vn 0.0769 -0.9796 0.1857
vn 0.1484 -0.9217 0.3584
vn 0.2142 -0.8286 0.5172
vn 0.2718 -0.7041 0.6561
vn 0.3189 -0.5528 0.7699
vn 0.3539 -0.3805 0.8544
vn 0.3754 -0.1939 0.9063
vn 0.3827 -0.0000 0.9239
vn 0.3754 0.1939 0.9063
vn 0.3539 0.3805 0.8544
vn 0.3189 0.5528 0.7699
vn 0.2718 0.7041 0.6561
vn 0.2142 0.8286 0.5172
vn 0.1484 0.9217 0.3584
vn 0.0769 0.9796 0.1857
vn 0.0392 -0.9796 0.1971
vn 0.0757 -0.9217 0.3804
vn 0.1092 -0.8286 0.5490
vn 0.1385 -0.7041 0.6965
vn 0.1626 -0.5528 0.8173
vn 0.1804 -0.3805 0.9070
vn 0.1914 -0.1939 0.9622
vn 0.1951 -0.0000 0.9808
vn 0.1914 0.1939 0.9622
vn 0.1804 0.3805 0.9070
vn 0.1626 0.5528 0.8173
vn 0.1385 0.7041 0.6965
vn 0.1092 0.8286 0.5490
vn 0.0757 0.9217 0.3804
vn 0.0392 0.9796 0.1971
vn -0.0000 -0.9796 0.2010
vn -0.0000 -0.9217 0.3879
vn -0.0000 -0.7041 0.7101
vn -0.0000 -0.3805 0.9248
vn -0.0000 0.3805 0.9248
vn -0.0000 0.7041 0.7101
vn -0.0000 0.8286 0.5598
vn -0.0000 0.9217 0.3879
vn -0.0000 0.9796 0.2010
vt 0.750000 0.687500
vt 0.718750 0.687500
vt 0.718750 0.750000
vt 0.750000 0.750000
vt 0.750000 0.187500
vt 0.718750 0.187500
vt 0.718750 0.250000
vt 0.750000 0.250000
vt 0.750000 0.625000
vt 0.718750 0.625000
vt 0.750000 0.125000
vt 0.718750 0.125000
vt 0.750000 0.562500
vt 0.718750 0.562500
vt 0.750000 0.062500
vt 0.718750 0.062500
vt 0.750000 0.500000
vt 0.718750 0.500000
vt 0.750000 0.937500
vt 0.718750 0.937500
vt 0.734375 1.000000
vt 0.734375 0.000000
vt 0.750000 0.437500
vt 0.718750 0.437500
vt 0.750000 0.875000
vt 0.718750 0.875000
vt 0.750000 0.375000
vt 0.718750 0.375000
vt 0.750000 0.812500
vt 0.718750 0.812500
vt 0.750000 0.312500
vt 0.718750 0.312500
vt 0.687500 0.750000
vt 0.687500 0.812500
vt 0.687500 0.250000
vt 0.687500 0.312500
vt 0.687500 0.687500
vt 0.687500 0.187500
vt 0.687500 0.625000
vt 0.687500 0.125000
vt 0.687500 0.562500
vt 0.687500 0.062500
vt 0.687500 0.500000
vt 0.687500 0.937500
vt 0.703125 1.000000
vt 0.703125 0.000000
vt 0.687500 0.437500
vt 0.687500 0.875000
vt 0.687500 0.375000
vt 0.656250 0.500000
vt 0.656250 0.562500
vt 0.656250 0.937500
vt 0.671875 1.000000
vt 0.671875 0.000000
vt 0.656250 0.062500
vt 0.656250 0.437500
vt 0.656250 0.875000
vt 0.656250 0.375000
vt 0.656250 0.812500
vt 0.656250 0.312500
vt 0.656250 0.750000
vt 0.656250 0.250000
vt 0.656250 0.687500
vt 0.656250 0.187500
vt 0.656250 0.625000
vt 0.656250 0.125000
vt 0.625000 0.250000
vt 0.625000 0.312500
vt 0.625000 0.687500
vt 0.625000 0.750000
vt 0.625000 0.187500
vt 0.625000 0.625000
vt 0.625000 0.125000
vt 0.625000 0.562500
vt 0.625000 0.062500
vt 0.625000 0.500000
vt 0.625000 0.937500
vt 0.640625 1.000000
vt 0.640625 0.000000
vt 0.625000 0.437500
vt 0.625000 0.875000
vt 0.625000 0.375000
vt 0.625000 0.812500
vt 0.593750 0.937500
vt 0.609375 1.000000
vt 0.609375 0.000000
vt 0.593750 0.062500
vt 0.593750 0.437500
vt 0.593750 0.500000
vt 0.593750 0.875000
vt 0.593750 0.375000
vt 0.593750 0.812500
vt 0.593750 0.312500
vt 0.593750 0.750000
vt 0.593750 0.250000
vt 0.593750 0.687500
vt 0.593750 0.187500
vt 0.593750 0.625000
vt 0.593750 0.125000
vt 0.593750 0.562500
vt 0.562500 0.687500
vt 0.562500 0.750000
vt 0.562500 0.187500
vt 0.562500 0.250000
vt 0.562500 0.625000
vt 0.562500 0.125000
vt 0.562500 0.562500
vt 0.562500 0.062500
vt 0.562500 0.500000
vt 0.562500 0.937500
vt 0.578125 1.000000
vt 0.578125 0.000000
vt 0.562500 0.437500
vt 0.562500 0.875000
vt 0.562500 0.375000
vt 0.562500 0.812500
vt 0.562500 0.312500
vt 0.531250 0.437500
vt 0.531250 0.500000
vt 0.531250 0.875000
vt 0.531250 0.937500
vt 0.531250 0.375000
vt 0.531250 0.812500
vt 0.531250 0.312500
vt 0.531250 0.750000
vt 0.531250 0.250000
vt 0.531250 0.687500
vt 0.531250 0.187500
vt 0.531250 0.625000
vt 0.531250 0.125000
vt 0.531250 0.562500
vt 0.531250 0.062500
vt 0.546875 1.000000
vt 0.546875 0.000000
vt 0.500000 0.187500
vt 0.500000 0.250000
vt 0.500000 0.625000
vt 0.500000 0.687500
vt 0.500000 0.125000
vt 0.500000 0.562500
vt 0.500000 0.062500
vt 0.500000 0.500000
vt 0.500000 0.937500
vt 0.515625 1.000000
vt 0.515625 0.000000
vt 0.500000 0.437500
vt 0.500000 0.875000
vt 0.500000 0.375000
vt 0.500000 0.812500
vt 0.500000 0.312500
vt 0.500000 0.750000
vt 0.468750 0.375000
vt 0.468750 0.437500
vt 0.468750 0.812500
vt 0.468750 0.875000
vt 0.468750 0.312500
vt 0.468750 0.750000
vt 0.468750 0.250000
vt 0.468750 0.687500
vt 0.468750 0.187500
vt 0.468750 0.625000
vt 0.468750 0.125000
vt 0.468750 0.562500
vt 0.468750 0.062500
vt 0.468750 0.500000
vt 0.468750 0.937500
vt 0.484375 1.000000
vt 0.484375 0.000000
vt 0.437500 0.125000
vt 0.437500 0.187500
vt 0.437500 0.562500
vt 0.437500 0.625000
vt 0.437500 0.062500
vt 0.437500 0.500000
vt 0.437500 0.937500
vt 0.453125 1.000000
vt 0.453125 0.000000
vt 0.437500 0.437500
vt 0.437500 0.875000
vt 0.437500 0.375000
vt 0.437500 0.812500
vt 0.437500 0.312500
vt 0.437500 0.750000
vt 0.437500 0.250000
vt 0.437500 0.687500
vt 0.406250 0.812500
vt 0.406250 0.875000
vt 0.406250 0.312500
vt 0.406250 0.375000
vt 0.406250 0.750000
vt 0.406250 0.250000
vt 0.406250 0.687500
vt 0.406250 0.187500
vt 0.406250 0.625000
vt 0.406250 0.125000
vt 0.406250 0.562500
vt 0.406250 0.062500
vt 0.406250 0.500000
vt 0.406250 0.937500
vt 0.421875 1.000000
vt 0.421875 0.000000
vt 0.406250 0.437500
vt 0.375000 0.562500
vt 0.375000 0.625000
vt 0.375000 0.062500
vt 0.375000 0.125000
vt 0.375000 0.500000
vt 0.375000 0.937500
vt 0.390625 1.000000
vt 0.390625 0.000000
vt 0.375000 0.437500
vt 0.375000 0.875000
vt 0.375000 0.375000
vt 0.375000 0.812500
vt 0.375000 0.312500
vt 0.375000 0.750000
vt 0.375000 0.250000
vt 0.375000 0.687500
vt 0.375000 0.187500
vt 0.343750 0.312500
vt 0.343750 0.375000
vt 0.343750 0.750000
vt 0.343750 0.812500
vt 0.343750 0.250000
vt 0.343750 0.687500
vt 0.343750 0.187500
vt 0.343750 0.625000
vt 0.343750 0.125000
vt 0.343750 0.562500
vt 0.343750 0.062500
vt 0.343750 0.500000
vt 0.343750 0.937500
vt 0.359375 1.000000
vt 0.359375 0.000000
vt 0.343750 0.437500
vt 0.343750 0.875000
vt 0.312500 0.062500
vt 0.312500 0.125000
vt 0.312500 0.500000
vt 0.312500 0.562500
vt 0.312500 0.937500
vt 0.328125 1.000000
vt 0.328125 0.000000
vt 0.312500 0.437500
vt 0.312500 0.875000
vt 0.312500 0.375000
vt 0.312500 0.812500
vt 0.312500 0.312500
vt 0.312500 0.750000
vt 0.312500 0.250000
vt 0.312500 0.687500
vt 0.312500 0.187500
vt 0.312500 0.625000
vt 0.281250 0.750000
vt 0.281250 0.812500
vt 0.281250 0.250000
vt 0.281250 0.312500
vt 0.281250 0.687500
vt 0.281250 0.187500
vt 0.281250 0.625000
vt 0.281250 0.125000
vt 0.281250 0.562500
vt 0.281250 0.062500
vt 0.281250 0.500000
vt 0.281250 0.937500
vt 0.296875 1.000000
vt 0.296875 0.000000
vt 0.281250 0.437500
vt 0.281250 0.875000
vt 0.281250 0.375000
vt 0.250000 0.500000
vt 0.250000 0.562500
vt 0.250000 0.937500
vt 0.265625 1.000000
vt 0.265625 0.000000
vt 0.250000 0.062500
vt 0.250000 0.437500
vt 0.250000 0.875000
vt 0.250000 0.375000
vt 0.250000 0.812500
vt 0.250000 0.312500
vt 0.250000 0.750000
vt 0.250000 0.250000
vt 0.250000 0.687500
vt 0.250000 0.187500
vt 0.250000 0.625000
vt 0.250000 0.125000
vt 0.218750 0.250000
vt 0.218750 0.312500
vt 0.218750 0.687500
vt 0.218750 0.750000
vt 0.218750 0.187500
vt 0.218750 0.625000
vt 0.218750 0.125000
vt 0.218750 0.562500
vt 0.218750 0.062500
vt 0.218750 0.500000
vt 0.218750 0.937500
vt 0.234375 1.000000
vt 0.234375 0.000000
vt 0.218750 0.437500
vt 0.218750 0.875000
vt 0.218750 0.375000
vt 0.218750 0.812500
vt 0.203125 0.000000
vt 0.187500 0.062500
vt 0.187500 0.437500
vt 0.187500 0.500000
vt 0.187500 0.875000
vt 0.187500 0.937500
vt 0.187500 0.375000
vt 0.187500 0.812500
vt 0.187500 0.312500
vt 0.187500 0.750000
vt 0.187500 0.250000
vt 0.187500 0.687500
vt 0.187500 0.187500
vt 0.187500 0.625000
vt 0.187500 0.125000
vt 0.187500 0.562500
vt 0.203125 1.000000
vt 0.156250 0.187500
vt 0.156250 0.250000
vt 0.156250 0.625000
vt 0.156250 0.687500
vt 0.156250 0.125000
vt 0.156250 0.562500
vt 0.156250 0.062500
vt 0.156250 0.500000
vt 0.156250 0.937500
vt 0.171875 1.000000
vt 0.171875 0.000000
vt 0.156250 0.437500
vt 0.156250 0.875000
vt 0.156250 0.375000
vt 0.156250 0.812500
vt 0.156250 0.312500
vt 0.156250 0.750000
vt 0.125000 0.875000
vt 0.125000 0.937500
vt 0.125000 0.375000
vt 0.125000 0.437500
vt 0.125000 0.812500
vt 0.125000 0.312500
vt 0.125000 0.750000
vt 0.125000 0.250000
vt 0.125000 0.687500
vt 0.125000 0.187500
vt 0.125000 0.625000
vt 0.125000 0.125000
vt 0.125000 0.562500
vt 0.125000 0.062500
vt 0.125000 0.500000
vt 0.140625 1.000000
vt 0.140625 0.000000
vt 0.093750 0.625000
vt 0.093750 0.687500
vt 0.093750 0.125000
vt 0.093750 0.187500
vt 0.093750 0.562500
vt 0.093750 0.062500
vt 0.093750 0.500000
vt 0.093750 0.937500
vt 0.109375 1.000000
vt 0.109375 0.000000
vt 0.093750 0.437500
vt 0.093750 0.875000
vt 0.093750 0.375000
vt 0.093750 0.812500
vt 0.093750 0.312500
vt 0.093750 0.750000
vt 0.093750 0.250000
vt 0.062500 0.375000
vt 0.062500 0.437500
vt 0.062500 0.812500
vt 0.062500 0.875000
vt 0.062500 0.312500
vt 0.062500 0.750000
vt 0.062500 0.250000
vt 0.062500 0.687500
vt 0.062500 0.187500
vt 0.062500 0.625000
vt 0.062500 0.125000
vt 0.062500 0.562500
vt 0.062500 0.062500
vt 0.062500 0.500000
vt 0.062500 0.937500
vt 0.078125 1.000000
vt 0.078125 0.000000
vt 0.031250 0.125000
vt 0.031250 0.187500
vt 0.031250 0.562500
vt 0.031250 0.625000
vt 0.031250 0.062500
vt 0.031250 0.500000
vt 0.031250 0.937500
vt 0.046875 1.000000
vt 0.046875 0.000000
vt 0.031250 0.437500
vt 0.031250 0.875000
vt 0.031250 0.375000
vt 0.031250 0.812500
vt 0.031250 0.312500
vt 0.031250 0.750000
vt 0.031250 0.250000
vt 0.031250 0.687500
vt 0.000000 0.812500
vt 0.000000 0.875000
vt 0.000000 0.312500
vt 0.000000 0.375000
vt 0.000000 0.750000
vt 0.000000 0.250000
vt 0.000000 0.687500
vt 0.000000 0.187500
vt 0.000000 0.625000
vt 0.000000 0.125000
vt 0.000000 0.562500
vt 0.000000 0.062500
vt 0.000000 0.500000
vt 0.000000 0.937500
vt 0.015625 1.000000
vt 0.015625 0.000000
vt 0.000000 0.437500
vt 1.000000 0.562500
vt 0.968750 0.562500
vt 0.968750 0.625000
vt 1.000000 0.625000
vt 1.000000 0.062500
vt 0.968750 0.062500
vt 0.968750 0.125000
vt 1.000000 0.125000
vt 1.000000 0.500000
vt 0.968750 0.500000
vt 1.000000 0.937500
vt 0.968750 0.937500
vt 0.984375 1.000000
vt 0.984375 0.000000
vt 1.000000 0.437500
vt 0.968750 0.437500
vt 1.000000 0.875000
vt 0.968750 0.875000
vt 1.000000 0.375000
vt 0.968750 0.375000
vt 1.000000 0.812500
vt 0.968750 0.812500
vt 1.000000 0.312500
vt 0.968750 0.312500
vt 1.000000 0.750000
vt 0.968750 0.750000
vt 1.000000 0.250000
vt 0.968750 0.250000
vt 1.000000 0.687500
vt 0.968750 0.687500
vt 1.000000 0.187500
vt 0.968750 0.187500
vt 0.937500 0.312500
vt 0.937500 0.375000
vt 0.937500 0.750000
vt 0.937500 0.812500
vt 0.937500 0.250000
vt 0.937500 0.687500
vt 0.937500 0.187500
vt 0.937500 0.625000
vt 0.937500 0.125000
vt 0.937500 0.562500
vt 0.937500 0.062500
vt 0.937500 0.500000
vt 0.937500 0.937500
vt 0.953125 1.000000
vt 0.953125 0.000000
vt 0.937500 0.437500
vt 0.937500 0.875000
vt 0.906250 0.062500
vt 0.906250 0.125000
vt 0.906250 0.500000
vt 0.906250 0.562500
vt 0.906250 0.937500
vt 0.921875 1.000000
vt 0.921875 0.000000
vt 0.906250 0.437500
vt 0.906250 0.875000
vt 0.906250 0.375000
vt 0.906250 0.812500
vt 0.906250 0.312500
vt 0.906250 0.750000
vt 0.906250 0.250000
vt 0.906250 0.687500
vt 0.906250 0.187500
vt 0.906250 0.625000
vt 0.875000 0.250000
vt 0.875000 0.312500
vt 0.875000 0.687500
vt 0.875000 0.750000
vt 0.875000 0.187500
vt 0.875000 0.625000
vt 0.875000 0.125000
vt 0.875000 0.562500
vt 0.875000 0.062500
vt 0.875000 0.500000
vt 0.875000 0.937500
vt 0.890625 1.000000
vt 0.890625 0.000000
vt 0.875000 0.437500
vt 0.875000 0.875000
vt 0.875000 0.375000
vt 0.875000 0.812500
vt 0.843750 0.937500
vt 0.859375 1.000000
vt 0.859375 0.000000
vt 0.843750 0.062500
vt 0.843750 0.437500
vt 0.843750 0.500000
vt 0.843750 0.875000
vt 0.843750 0.375000
vt 0.843750 0.812500
vt 0.843750 0.312500
vt 0.843750 0.750000
vt 0.843750 0.250000
vt 0.843750 0.687500
vt 0.843750 0.187500
vt 0.843750 0.625000
vt 0.843750 0.125000
vt 0.843750 0.562500
vt 0.812500 0.687500
vt 0.812500 0.750000
vt 0.812500 0.187500
vt 0.812500 0.250000
vt 0.812500 0.625000
vt 0.812500 0.125000
vt 0.812500 0.562500
vt 0.812500 0.062500
vt 0.812500 0.500000
vt 0.812500 0.937500
vt 0.828125 1.000000
vt 0.828125 0.000000
vt 0.812500 0.437500
vt 0.812500 0.875000
vt 0.812500 0.375000
vt 0.812500 0.812500
vt 0.812500 0.312500
vt 0.781250 0.437500
vt 0.781250 0.500000
vt 0.781250 0.875000
vt 0.781250 0.937500
vt 0.781250 0.375000
vt 0.781250 0.812500
vt 0.781250 0.312500
vt 0.781250 0.750000
vt 0.781250 0.250000
vt 0.781250 0.687500
vt 0.781250 0.187500
vt 0.781250 0.625000
vt 0.781250 0.125000
vt 0.781250 0.562500
vt 0.781250 0.062500
vt 0.796875 1.000000
vt 0.796875 0.000000
vt 0.765625 1.000000
vt 0.765625 0.000000
s 1
usemtl マテリアル
f 3/1/3 13/2/13 12/3/12 476/4/476
f 480/5/480 21/6/21 20/7/20 479/8/479
f 477/9/477 14/10/14 13/2/13 3/1/3
f 481/11/481 22/12/22 21/6/21 480/5/480
f 4/13/4 15/14/15 14/10/14 477/9/477
f 482/15/482 23/16/23 22/12/22 481/11/481
f 5/17/5 16/18/16 15/14/15 4/13/4
f 474/19/474 9/20/9 1/21/1
f 8/22/8 23/16/23 482/15/482
f 6/23/6 17/24/17 16/18/16 5/17/5
f 475/25/475 10/26/10 9/20/9 474/19/474
f 478/27/478 18/28/18 17/24/17 6/23/6
f 2/29/2 11/30/11 10/26/10 475/25/475
f 7/31/7 19/32/19 18/28/18 478/27/478
f 476/4/476 12/3/12 11/30/11 2/29/2
f 479/8/479 20/7/20 19/32/19 7/31/7
f 12/3/12 27/33/27 26/34/26 11/30/11
f 20/7/20 35/35/35 34/36/34 19/32/19
f 13/2/13 28/37/28 27/33/27 12/3/12
f 21/6/21 36/38/36 35/35/35 20/7/20
f 14/10/14 29/39/29 28/37/28 13/2/13
f 22/12/22 37/40/37 36/38/36 21/6/21
f 15/14/15 30/41/30 29/39/29 14/10/14
f 23/16/23 38/42/38 37/40/37 22/12/22
f 16/18/16 31/43/31 30/41/30 15/14/15
f 9/20/9 24/44/24 1/45/1
f 8/46/8 38/42/38 23/16/23
f 17/24/17 32/47/32 31/43/31 16/18/16
f 10/26/10 25/48/25 24/44/24 9/20/9
f 18/28/18 33/49/33 32/47/32 17/24/17
f 11/30/11 26/34/26 25/48/25 10/26/10
f 19/32/19 34/36/34 33/49/33 18/28/18
f 31/43/31 46/50/46 45/51/45 30/41/30
f 24/44/24 39/52/39 1/53/1
f 8/54/8 53/55/53 38/42/38
f 32/47/32 47/56/47 46/50/46 31/43/31
f 25/48/25 40/57/40 39/52/39 24/44/24
f 33/49/33 48/58/48 47/56/47 32/47/32
f 26/34/26 41/59/41 40/57/40 25/48/25
f 34/36/34 49/60/49 48/58/48 33/49/33
f 27/33/27 42/61/42 41/59/41 26/34/26
f 35/35/35 50/62/50 49/60/49 34/36/34
f 28/37/28 43/63/43 42/61/42 27/33/27
f 36/38/36 51/64/51 50/62/50 35/35/35
f 29/39/29 44/65/44 43/63/43 28/37/28
f 37/40/37 52/66/52 51/64/51 36/38/36
f 30/41/30 45/51/45 44/65/44 29/39/29
f 38/42/38 53/55/53 52/66/52 37/40/37
f 50/62/50 65/67/65 64/68/64 49/60/49
f 43/63/43 58/69/58 57/70/57 42/61/42
f 51/64/51 66/71/66 65/67/65 50/62/50
f 44/65/44 59/72/59 58/69/58 43/63/43
f 52/66/52 67/73/67 66/71/66 51/64/51
f 45/51/45 60/74/60 59/72/59 44/65/44
f 53/55/53 68/75/68 67/73/67 52/66/52
f 46/50/46 61/76/61 60/74/60 45/51/45
f 39/52/39 54/77/54 1/78/1
f 8/79/8 68/75/68 53/55/53
f 47/56/47 62/80/62 61/76/61 46/50/46
f 40/57/40 55/81/55 54/77/54 39/52/39
f 48/58/48 63/82/63 62/80/62 47/56/47
f 41/59/41 56/83/56 55/81/55 40/57/40
f 49/60/49 64/68/64 63/82/63 48/58/48
f 42/61/42 57/70/57 56/83/56 41/59/41
f 54/77/54 69/84/69 1/85/1
f 8/86/8 83/87/83 68/75/68
f 62/80/62 77/88/77 76/89/76 61/76/61
f 55/81/55 70/90/70 69/84/69 54/77/54
f 63/82/63 78/91/78 77/88/77 62/80/62
f 56/83/56 71/92/71 70/90/70 55/81/55
f 64/68/64 79/93/79 78/91/78 63/82/63
f 57/70/57 72/94/72 71/92/71 56/83/56
f 65/67/65 80/95/80 79/93/79 64/68/64
f 58/69/58 73/96/73 72/94/72 57/70/57
f 66/71/66 81/97/81 80/95/80 65/67/65
f 59/72/59 74/98/74 73/96/73 58/69/58
f 67/73/67 82/99/82 81/97/81 66/71/66
f 60/74/60 75/100/75 74/98/74 59/72/59
f 68/75/68 83/87/83 82/99/82 67/73/67
f 61/76/61 76/89/76 75/100/75 60/74/60
f 73/96/73 88/101/88 87/102/87 72/94/72
f 81/97/81 96/103/96 95/104/95 80/95/80
f 74/98/74 89/105/89 88/101/88 73/96/73
f 82/99/82 97/106/97 96/103/96 81/97/81
f 75/100/75 90/107/90 89/105/89 74/98/74
f 83/87/83 98/108/98 97/106/97 82/99/82
f 76/89/76 91/109/91 90/107/90 75/100/75
f 69/84/69 84/110/84 1/111/1
f 8/112/8 98/108/98 83/87/83
f 77/88/77 92/113/92 91/109/91 76/89/76
f 70/90/70 85/114/85 84/110/84 69/84/69
f 78/91/78 93/115/93 92/113/92 77/88/77
f 71/92/71 86/116/86 85/114/85 70/90/70
f 79/93/79 94/117/94 93/115/93 78/91/78
f 72/94/72 87/102/87 86/116/86 71/92/71
f 80/95/80 95/104/95 94/117/94 79/93/79
f 92/113/92 107/118/107 106/119/106 91/109/91
f 85/114/85 100/120/100 99/121/99 84/110/84
f 93/115/93 108/122/108 107/118/107 92/113/92
f 86/116/86 101/123/101 100/120/100 85/114/85
f 94/117/94 109/124/109 108/122/108 93/115/93
f 87/102/87 102/125/102 101/123/101 86/116/86
f 95/104/95 110/126/110 109/124/109 94/117/94
f 88/101/88 103/127/103 102/125/102 87/102/87
f 96/103/96 111/128/111 110/126/110 95/104/95
f 89/105/89 104/129/104 103/127/103 88/101/88
f 97/106/97 112/130/112 111/128/111 96/103/96
f 90/107/90 105/131/105 104/129/104 89/105/89
f 98/108/98 113/132/113 112/130/112 97/106/97
f 91/109/91 106/119/106 105/131/105 90/107/90
f 84/110/84 99/121/99 1/133/1
f 8/134/8 113/132/113 98/108/98
f 111/128/111 126/135/126 125/136/125 110/126/110
f 104/129/104 119/137/119 118/138/118 103/127/103
f 112/130/112 127/139/127 126/135/126 111/128/111
f 105/131/105 120/140/120 119/137/119 104/129/104
f 113/132/113 128/141/128 127/139/127 112/130/112
f 106/119/106 121/142/121 120/140/120 105/131/105
f 99/121/99 114/143/114 1/144/1
f 8/145/8 128/141/128 113/132/113
f 107/118/107 122/146/122 121/142/121 106/119/106
f 100/120/100 115/147/115 114/143/114 99/121/99
f 108/122/108 123/148/123 122/146/122 107/118/107
f 101/123/101 116/149/116 115/147/115 100/120/100
f 109/124/109 124/150/124 123/148/123 108/122/108
f 102/125/102 117/151/117 116/149/116 101/123/101
f 110/126/110 125/136/125 124/150/124 109/124/109
f 103/127/103 118/138/118 117/151/117 102/125/102
f 123/148/123 138/152/138 137/153/137 122/146/122
f 116/149/116 131/154/131 130/155/130 115/147/115
f 124/150/124 139/156/139 138/152/138 123/148/123
f 117/151/117 132/157/132 131/154/131 116/149/116
f 125/136/125 140/158/140 139/156/139 124/150/124
f 118/138/118 133/159/133 132/157/132 117/151/117
f 126/135/126 141/160/141 140/158/140 125/136/125
f 119/137/119 134/161/134 133/159/133 118/138/118
f 127/139/127 142/162/142 141/160/141 126/135/126
f 120/140/120 135/163/135 134/161/134 119/137/119
f 128/141/128 143/164/143 142/162/142 127/139/127
f 121/142/121 136/165/136 135/163/135 120/140/120
f 114/143/114 129/166/129 1/167/1
f 8/168/8 143/164/143 128/141/128
f 122/146/122 137/153/137 136/165/136 121/142/121
f 115/147/115 130/155/130 129/166/129 114/143/114
f 142/162/142 157/169/157 156/170/156 141/160/141
f 135/163/135 150/171/150 149/172/149 134/161/134
f 143/164/143 158/173/158 157/169/157 142/162/142
f 136/165/136 151/174/151 150/171/150 135/163/135
f 129/166/129 144/175/144 1/176/1
f 8/177/8 158/173/158 143/164/143
f 137/153/137 152/178/152 151/174/151 136/165/136
f 130/155/130 145/179/145 144/175/144 129/166/129
f 138/152/138 153/180/153 152/178/152 137/153/137
f 131/154/131 146/181/146 145/179/145 130/155/130
f 139/156/139 154/182/154 153/180/153 138/152/138
f 132/157/132 147/183/147 146/181/146 131/154/131
f 140/158/140 155/184/155 154/182/154 139/156/139
f 133/159/133 148/185/148 147/183/147 132/157/132
f 141/160/141 156/170/156 155/184/155 140/158/140
f 134/161/134 149/172/149 148/185/148 133/159/133
f 146/181/146 161/186/161 160/187/160 145/179/145
f 154/182/154 169/188/169 168/189/168 153/180/153
f 147/183/147 162/190/162 161/186/161 146/181/146
f 155/184/155 170/191/170 169/188/169 154/182/154
f 148/185/148 163/192/163 162/190/162 147/183/147
f 156/170/156 171/193/171 170/191/170 155/184/155
f 149/172/149 164/194/164 163/192/163 148/185/148
f 157/169/157 172/195/172 171/193/171 156/170/156
f 150/171/150 165/196/165 164/194/164 149/172/149
f 158/173/158 173/197/173 172/195/172 157/169/157
f 151/174/151 166/198/166 165/196/165 150/171/150
f 144/175/144 159/199/159 1/200/1
f 8/201/8 173/197/173 158/173/158
f 152/178/152 167/202/167 166/198/166 151/174/151
f 145/179/145 160/187/160 159/199/159 144/175/144
f 153/180/153 168/189/168 167/202/167 152/178/152
f 165/196/165 180/203/180 179/204/179 164/194/164
f 173/197/173 188/205/188 187/206/187 172/195/172
f 166/198/166 181/207/181 180/203/180 165/196/165
f 159/199/159 174/208/174 1/209/1
f 8/210/8 188/205/188 173/197/173
f 167/202/167 182/211/182 181/207/181 166/198/166
f 160/187/160 175/212/175 174/208/174 159/199/159
f 168/189/168 183/213/183 182/211/182 167/202/167
f 161/186/161 176/214/176 175/212/175 160/187/160
f 169/188/169 184/215/184 183/213/183 168/189/168
f 162/190/162 177/216/177 176/214/176 161/186/161
f 170/191/170 185/217/185 184/215/184 169/188/169
f 163/192/163 178/218/178 177/216/177 162/190/162
f 171/193/171 186/219/186 185/217/185 170/191/170
f 164/194/164 179/204/179 178/218/178 163/192/163
f 172/195/172 187/206/187 186/219/186 171/193/171
f 184/215/184 199/220/199 198/221/198 183/213/183
f 177/216/177 192/222/192 191/223/191 176/214/176
f 185/217/185 200/224/200 199/220/199 184/215/184
f 178/218/178 193/225/193 192/222/192 177/216/177
f 186/219/186 201/226/201 200/224/200 185/217/185
f 179/204/179 194/227/194 193/225/193 178/218/178
f 187/206/187 202/228/202 201/226/201 186/219/186
f 180/203/180 195/229/195 194/227/194 179/204/179
f 188/205/188 203/230/203 202/228/202 187/206/187
f 181/207/181 196/231/196 195/229/195 180/203/180
f 174/208/174 189/232/189 1/233/1
f 8/234/8 203/230/203 188/205/188
f 182/211/182 197/235/197 196/231/196 181/207/181
f 175/212/175 190/236/190 189/232/189 174/208/174
f 183/213/183 198/221/198 197/235/197 182/211/182
f 176/214/176 191/223/191 190/236/190 175/212/175
f 203/230/203 218/237/218 217/238/217 202/228/202
f 196/231/196 211/239/211 210/240/210 195/229/195
f 189/232/189 204/241/204 1/242/1
f 8/243/8 218/237/218 203/230/203
f 197/235/197 212/244/212 211/239/211 196/231/196
f 190/236/190 205/245/205 204/241/204 189/232/189
f 198/221/198 213/246/213 212/244/212 197/235/197
f 191/223/191 206/247/206 205/245/205 190/236/190
f 199/220/199 214/248/214 213/246/213 198/221/198
f 192/222/192 207/249/207 206/247/206 191/223/191
f 200/224/200 215/250/215 214/248/214 199/220/199
f 193/225/193 208/251/208 207/249/207 192/222/192
f 201/226/201 216/252/216 215/250/215 200/224/200
f 194/227/194 209/253/209 208/251/208 193/225/193
f 202/228/202 217/238/217 216/252/216 201/226/201
f 195/229/195 210/240/210 209/253/209 194/227/194
f 207/249/207 222/254/222 221/255/221 206/247/206
f 215/250/215 230/256/230 229/257/229 214/248/214
f 208/251/208 223/258/223 222/254/222 207/249/207
f 216/252/216 231/259/231 230/256/230 215/250/215
f 209/253/209 224/260/224 223/258/223 208/251/208
f 217/238/217 232/261/232 231/259/231 216/252/216
f 210/240/210 225/262/225 224/260/224 209/253/209
f 218/237/218 233/263/233 232/261/232 217/238/217
f 211/239/211 226/264/226 225/262/225 210/240/210
f 204/241/204 219/265/219 1/266/1
f 8/267/8 233/263/233 218/237/218
f 212/244/212 227/268/227 226/264/226 211/239/211
f 205/245/205 220/269/220 219/265/219 204/241/204
f 213/246/213 228/270/228 227/268/227 212/244/212
f 206/247/206 221/255/221 220/269/220 205/245/205
f 214/248/214 229/257/229 228/270/228 213/246/213
f 226/264/226 241/271/241 240/272/240 225/262/225
f 219/265/219 234/273/234 1/274/1
f 8/275/8 248/276/248 233/263/233
f 227/268/227 242/277/242 241/271/241 226/264/226
f 220/269/220 235/278/235 234/273/234 219/265/219
f 228/270/228 243/279/243 242/277/242 227/268/227
f 221/255/221 236/280/236 235/278/235 220/269/220
f 229/257/229 244/281/244 243/279/243 228/270/228
f 222/254/222 237/282/237 236/280/236 221/255/221
f 230/256/230 245/283/245 244/281/244 229/257/229
f 223/258/223 238/284/238 237/282/237 222/254/222
f 231/259/231 246/285/246 245/283/245 230/256/230
f 224/260/224 239/286/239 238/284/238 223/258/223
f 232/261/232 247/287/247 246/285/246 231/259/231
f 225/262/225 240/272/240 239/286/239 224/260/224
f 233/263/233 248/276/248 247/287/247 232/261/232
f 245/283/245 260/288/260 259/289/259 244/281/244
f 238/284/238 253/290/253 252/291/252 237/282/237
f 246/285/246 261/292/261 260/288/260 245/283/245
f 239/286/239 254/293/254 253/290/253 238/284/238
f 247/287/247 262/294/262 261/292/261 246/285/246
f 240/272/240 255/295/255 254/293/254 239/286/239
f 248/276/248 263/296/263 262/294/262 247/287/247
f 241/271/241 256/297/256 255/295/255 240/272/240
f 234/273/234 249/298/249 1/299/1
f 8/300/8 263/296/263 248/276/248
f 242/277/242 257/301/257 256/297/256 241/271/241
f 235/278/235 250/302/250 249/298/249 234/273/234
f 243/279/243 258/303/258 257/301/257 242/277/242
f 236/280/236 251/304/251 250/302/250 235/278/235
f 244/281/244 259/289/259 258/303/258 243/279/243
f 237/282/237 252/291/252 251/304/251 236/280/236
f 8/305/8 278/306/278 263/296/263
f 257/301/257 272/307/272 271/308/271 256/297/256
f 250/302/250 265/309/265 264/310/264 249/298/249
f 258/303/258 273/311/273 272/307/272 257/301/257
f 251/304/251 266/312/266 265/309/265 250/302/250
f 259/289/259 274/313/274 273/311/273 258/303/258
f 252/291/252 267/314/267 266/312/266 251/304/251
f 260/288/260 275/315/275 274/313/274 259/289/259
f 253/290/253 268/316/268 267/314/267 252/291/252
f 261/292/261 276/317/276 275/315/275 260/288/260
f 254/293/254 269/318/269 268/316/268 253/290/253
f 262/294/262 277/319/277 276/317/276 261/292/261
f 255/295/255 270/320/270 269/318/269 254/293/254
f 263/296/263 278/306/278 277/319/277 262/294/262
f 256/297/256 271/308/271 270/320/270 255/295/255
f 249/298/249 264/310/264 1/321/1
f 276/317/276 291/322/291 290/323/290 275/315/275
f 269/318/269 284/324/284 283/325/283 268/316/268
f 277/319/277 292/326/292 291/322/291 276/317/276
f 270/320/270 285/327/285 284/324/284 269/318/269
f 278/306/278 293/328/293 292/326/292 277/319/277
f 271/308/271 286/329/286 285/327/285 270/320/270
f 264/310/264 279/330/279 1/331/1
f 8/332/8 293/328/293 278/306/278
f 272/307/272 287/333/287 286/329/286 271/308/271
f 265/309/265 280/334/280 279/330/279 264/310/264
f 273/311/273 288/335/288 287/333/287 272/307/272
f 266/312/266 281/336/281 280/334/280 265/309/265
f 274/313/274 289/337/289 288/335/288 273/311/273
f 267/314/267 282/338/282 281/336/281 266/312/266
f 275/315/275 290/323/290 289/337/289 274/313/274
f 268/316/268 283/325/283 282/338/282 267/314/267
f 280/334/280 295/339/295 294/340/294 279/330/279
f 288/335/288 303/341/303 302/342/302 287/333/287
f 281/336/281 296/343/296 295/339/295 280/334/280
f 289/337/289 304/344/304 303/341/303 288/335/288
f 282/338/282 297/345/297 296/343/296 281/336/281
f 290/323/290 305/346/305 304/344/304 289/337/289
f 283/325/283 298/347/298 297/345/297 282/338/282
f 291/322/291 306/348/306 305/346/305 290/323/290
f 284/324/284 299/349/299 298/347/298 283/325/283
f 292/326/292 307/350/307 306/348/306 291/322/291
f 285/327/285 300/351/300 299/349/299 284/324/284
f 293/328/293 308/352/308 307/350/307 292/326/292
f 286/329/286 301/353/301 300/351/300 285/327/285
f 279/330/279 294/340/294 1/354/1
f 8/355/8 308/352/308 293/328/293
f 287/333/287 302/342/302 301/353/301 286/329/286
f 299/349/299 314/356/314 313/357/313 298/347/298
f 307/350/307 322/358/322 321/359/321 306/348/306
f 300/351/300 315/360/315 314/356/314 299/349/299
f 308/352/308 323/361/323 322/358/322 307/350/307
f 301/353/301 316/362/316 315/360/315 300/351/300
f 294/340/294 309/363/309 1/364/1
f 8/365/8 323/361/323 308/352/308
f 302/342/302 317/366/317 316/362/316 301/353/301
f 295/339/295 310/367/310 309/363/309 294/340/294
f 303/341/303 318/368/318 317/366/317 302/342/302
f 296/343/296 311/369/311 310/367/310 295/339/295
f 304/344/304 319/370/319 318/368/318 303/341/303
f 297/345/297 312/371/312 311/369/311 296/343/296
f 305/346/305 320/372/320 319/370/319 304/344/304
f 298/347/298 313/357/313 312/371/312 297/345/297
f 306/348/306 321/359/321 320/372/320 305/346/305
f 318/368/318 333/373/333 332/374/332 317/366/317
f 311/369/311 326/375/326 325/376/325 310/367/310
f 319/370/319 334/377/334 333/373/333 318/368/318
f 312/371/312 327/378/327 326/375/326 311/369/311
f 320/372/320 335/379/335 334/377/334 319/370/319
f 313/357/313 328/380/328 327/378/327 312/371/312
f 321/359/321 336/381/336 335/379/335 320/372/320
f 314/356/314 329/382/329 328/380/328 313/357/313
f 322/358/322 337/383/337 336/381/336 321/359/321
f 315/360/315 330/384/330 329/382/329 314/356/314
f 323/361/323 338/385/338 337/383/337 322/358/322
f 316/362/316 331/386/331 330/384/330 315/360/315
f 309/363/309 324/387/324 1/388/1
f 8/389/8 338/385/338 323/361/323
f 317/366/317 332/374/332 331/386/331 316/362/316
f 310/367/310 325/376/325 324/387/324 309/363/309
f 337/383/337 352/390/352 351/391/351 336/381/336
f 330/384/330 345/392/345 344/393/344 329/382/329
f 338/385/338 353/394/353 352/390/352 337/383/337
f 331/386/331 346/395/346 345/392/345 330/384/330
f 324/387/324 339/396/339 1/397/1
f 8/398/8 353/394/353 338/385/338
f 332/374/332 347/399/347 346/395/346 331/386/331
f 325/376/325 340/400/340 339/396/339 324/387/324
f 333/373/333 348/401/348 347/399/347 332/374/332
f 326/375/326 341/402/341 340/400/340 325/376/325
f 334/377/334 349/403/349 348/401/348 333/373/333
f 327/378/327 342/404/342 341/402/341 326/375/326
f 335/379/335 350/405/350 349/403/349 334/377/334
f 328/380/328 343/406/343 342/404/342 327/378/327
f 336/381/336 351/391/351 350/405/350 335/379/335
f 329/382/329 344/393/344 343/406/343 328/380/328
f 341/402/341 356/407/356 355/408/355 340/400/340
f 349/403/349 364/409/364 363/410/363 348/401/348
f 342/404/342 357/411/357 356/407/356 341/402/341
f 350/405/350 365/412/365 364/409/364 349/403/349
f 343/406/343 358/413/358 357/411/357 342/404/342
f 351/391/351 366/414/366 365/412/365 350/405/350
f 344/393/344 359/415/359 358/413/358 343/406/343
f 352/390/352 367/416/367 366/414/366 351/391/351
f 345/392/345 360/417/360 359/415/359 344/393/344
f 353/394/353 368/418/368 367/416/367 352/390/352
f 346/395/346 361/419/361 360/417/360 345/392/345
f 339/396/339 354/420/354 1/421/1
f 8/422/8 368/418/368 353/394/353
f 347/399/347 362/423/362 361/419/361 346/395/346
f 340/400/340 355/408/355 354/420/354 339/396/339
f 348/401/348 363/410/363 362/423/362 347/399/347
f 360/424/360 375/425/375 374/426/374 359/427/359
f 368/428/368 383/429/383 382/430/382 367/431/367
f 361/432/361 376/433/376 375/425/375 360/424/360
f 354/434/354 369/435/369 1/436/1
f 8/437/8 383/429/383 368/428/368
f 362/438/362 377/439/377 376/433/376 361/432/361
f 355/440/355 370/441/370 369/435/369 354/434/354
f 363/442/363 378/443/378 377/439/377 362/438/362
f 356/444/356 371/445/371 370/441/370 355/440/355
f 364/446/364 379/447/379 378/443/378 363/442/363
f 357/448/357 372/449/372 371/445/371 356/444/356
f 365/450/365 380/451/380 379/447/379 364/446/364
f 358/452/358 373/453/373 372/449/372 357/448/357
f 366/454/366 381/455/381 380/451/380 365/450/365
f 359/427/359 374/426/374 373/453/373 358/452/358
f 367/431/367 382/430/382 381/455/381 366/454/366
f 379/447/379 394/456/394 393/457/393 378/443/378
f 372/449/372 387/458/387 386/459/386 371/445/371
f 380/451/380 395/460/395 394/456/394 379/447/379
f 373/453/373 388/461/388 387/458/387 372/449/372
f 381/455/381 396/462/396 395/460/395 380/451/380
f 374/426/374 389/463/389 388/461/388 373/453/373
f 382/430/382 397/464/397 396/462/396 381/455/381
f 375/425/375 390/465/390 389/463/389 374/426/374
f 383/429/383 398/466/398 397/464/397 382/430/382
f 376/433/376 391/467/391 390/465/390 375/425/375
f 369/435/369 384/468/384 1/469/1
f 8/470/8 398/466/398 383/429/383
f 377/439/377 392/471/392 391/467/391 376/433/376
f 370/441/370 385/472/385 384/468/384 369/435/369
f 378/443/378 393/457/393 392/471/392 377/439/377
f 371/445/371 386/459/386 385/472/385 370/441/370
f 398/466/398 413/473/413 412/474/412 397/464/397
f 391/467/391 406/475/406 405/476/405 390/465/390
f 384/468/384 399/477/399 1/478/1
f 8/479/8 413/473/413 398/466/398
f 392/471/392 407/480/407 406/475/406 391/467/391
f 385/472/385 400/481/400 399/477/399 384/468/384
f 393/457/393 408/482/408 407/480/407 392/471/392
f 386/459/386 401/483/401 400/481/400 385/472/385
f 394/456/394 409/484/409 408/482/408 393/457/393
f 387/458/387 402/485/402 401/483/401 386/459/386
f 395/460/395 410/486/410 409/484/409 394/456/394
f 388/461/388 403/487/403 402/485/402 387/458/387
f 396/462/396 411/488/411 410/486/410 395/460/395
f 389/463/389 404/489/404 403/487/403 388/461/388
f 397/464/397 412/474/412 411/488/411 396/462/396
f 390/465/390 405/476/405 404/489/404 389/463/389
f 410/486/410 425/490/425 424/491/424 409/484/409
f 403/487/403 418/492/418 417/493/417 402/485/402
f 411/488/411 426/494/426 425/490/425 410/486/410
f 404/489/404 419/495/419 418/492/418 403/487/403
f 412/474/412 427/496/427 426/494/426 411/488/411
f 405/476/405 420/497/420 419/495/419 404/489/404
f 413/473/413 428/498/428 427/496/427 412/474/412
f 406/475/406 421/499/421 420/497/420 405/476/405
f 399/477/399 414/500/414 1/501/1
f 8/502/8 428/498/428 413/473/413
f 407/480/407 422/503/422 421/499/421 406/475/406
f 400/481/400 415/504/415 414/500/414 399/477/399
f 408/482/408 423/505/423 422/503/422 407/480/407
f 401/483/401 416/506/416 415/504/415 400/481/400
f 409/484/409 424/491/424 423/505/423 408/482/408
f 402/485/402 417/493/417 416/506/416 401/483/401
f 414/500/414 429/507/429 1/508/1
f 8/509/8 443/510/443 428/498/428
f 422/503/422 437/511/437 436/512/436 421/499/421
f 415/504/415 430/513/430 429/507/429 414/500/414
f 423/505/423 438/514/438 437/511/437 422/503/422
f 416/506/416 431/515/431 430/513/430 415/504/415
f 424/491/424 439/516/439 438/514/438 423/505/423
f 417/493/417 432/517/432 431/515/431 416/506/416
f 425/490/425 440/518/440 439/516/439 424/491/424
f 418/492/418 433/519/433 432/517/432 417/493/417
f 426/494/426 441/520/441 440/518/440 425/490/425
f 419/495/419 434/521/434 433/519/433 418/492/418
f 427/496/427 442/522/442 441/520/441 426/494/426
f 420/497/420 435/523/435 434/521/434 419/495/419
f 428/498/428 443/510/443 442/522/442 427/496/427
f 421/499/421 436/512/436 435/523/435 420/497/420
f 433/519/433 448/524/448 447/525/447 432/517/432
f 441/520/441 456/526/456 455/527/455 440/518/440
f 434/521/434 449/528/449 448/524/448 433/519/433
f 442/522/442 457/529/457 456/526/456 441/520/441
f 435/523/435 450/530/450 449/528/449 434/521/434
f 443/510/443 458/531/458 457/529/457 442/522/442
f 436/512/436 451/532/451 450/530/450 435/523/435
f 429/507/429 444/533/444 1/534/1
f 8/535/8 458/531/458 443/510/443
f 437/511/437 452/536/452 451/532/451 436/512/436
f 430/513/430 445/537/445 444/533/444 429/507/429
f 438/514/438 453/538/453 452/536/452 437/511/437
f 431/515/431 446/539/446 445/537/445 430/513/430
f 439/516/439 454/540/454 453/538/453 438/514/438
f 432/517/432 447/525/447 446/539/446 431/515/431
f 440/518/440 455/527/455 454/540/454 439/516/439
f 452/536/452 467/541/467 466/542/466 451/532/451
f 445/537/445 460/543/460 459/544/459 444/533/444
f 453/538/453 468/545/468 467/541/467 452/536/452
f 446/539/446 461/546/461 460/543/460 445/537/445
f 454/540/454 469/547/469 468/545/468 453/538/453
f 447/525/447 462/548/462 461/546/461 446/539/446
f 455/527/455 470/549/470 469/547/469 454/540/454
f 448/524/448 463/550/463 462/548/462 447/525/447
f 456/526/456 471/551/471 470/549/470 455/527/455
f 449/528/449 464/552/464 463/550/463 448/524/448
f 457/529/457 472/553/472 471/551/471 456/526/456
f 450/530/450 465/554/465 464/552/464 449/528/449
f 458/531/458 473/555/473 472/553/472 457/529/457
f 451/532/451 466/542/466 465/554/465 450/530/450
f 444/533/444 459/544/459 1/556/1
f 8/557/8 473/555/473 458/531/458
f 471/551/471 480/5/480 479/8/479 470/549/470
f 464/552/464 477/9/477 3/1/3 463/550/463
f 472/553/472 481/11/481 480/5/480 471/551/471
f 465/554/465 4/13/4 477/9/477 464/552/464
f 473/555/473 482/15/482 481/11/481 472/553/472
f 466/542/466 5/17/5 4/13/4 465/554/465
f 459/544/459 474/19/474 1/558/1
f 8/559/8 482/15/482 473/555/473
f 467/541/467 6/23/6 5/17/5 466/542/466
f 460/543/460 475/25/475 474/19/474 459/544/459
f 468/545/468 478/27/478 6/23/6 467/541/467
f 461/546/461 2/29/2 475/25/475 460/543/460
f 469/547/469 7/31/7 478/27/478 468/545/468
f 462/548/462 476/4/476 2/29/2 461/546/461
f 470/549/470 479/8/479 7/31/7 469/547/469
f 463/550/463 3/1/3 476/4/476 462/548/462
